<?xml version="1.0" standalone="no"?>
<!DOCTYPE svg PUBLIC "-//W3C//DTD SVG 20010904//EN"
 "http://www.w3.org/TR/2001/REC-SVG-20010904/DTD/svg10.dtd">
<svg version="1.0" xmlns="http://www.w3.org/2000/svg"
 width="512.000000pt" height="512.000000pt" viewBox="0 0 512.000000 512.000000"
 preserveAspectRatio="xMidYMid meet">
<metadata>
Created by potrace 1.11, written by Peter Selinger 2001-2013
</metadata>
<g transform="translate(0.000000,512.000000) scale(0.100000,-0.100000)"
fill="#000000" stroke="none">
<path d="M2480 5107 c-25 -7 -97 -40 -160 -74 -63 -33 -178 -93 -255 -133
-136 -70 -221 -115 -430 -225 -55 -29 -158 -83 -230 -120 -71 -37 -170 -89
-220 -115 -49 -26 -153 -80 -230 -120 -77 -40 -189 -98 -250 -130 -60 -32
-164 -86 -230 -120 -296 -154 -351 -186 -388 -223 -51 -51 -79 -117 -82 -192
-4 -91 19 -150 85 -215 72 -71 134 -95 227 -87 69 5 103 20 408 180 110 58
191 101 515 269 63 33 156 82 205 108 50 26 151 79 225 118 74 38 182 94 240
124 58 30 161 85 230 120 69 36 191 100 273 142 l147 77 123 -64 c67 -35 132
-69 145 -75 12 -7 30 -16 40 -20 9 -5 55 -29 102 -54 47 -25 153 -80 235 -123
83 -43 191 -99 240 -125 50 -26 149 -78 220 -115 72 -37 171 -89 220 -115 50
-26 167 -87 260 -136 94 -48 220 -114 280 -146 295 -156 312 -163 400 -163 67
0 88 5 130 27 148 78 204 247 129 394 -34 67 -77 104 -192 165 -121 64 -776
405 -952 496 -80 42 -181 95 -225 118 -79 42 -141 74 -480 251 -93 48 -215
112 -270 141 -253 134 -320 164 -381 168 -33 2 -79 -2 -104 -8z"/>
<path d="M1314 3334 c-81 -28 -136 -114 -128 -201 4 -47 14 -68 80 -163 73
-106 102 -235 82 -370 -13 -90 -55 -192 -130 -317 -99 -165 -168 -318 -184
-408 -3 -16 -9 -46 -13 -65 -12 -57 -13 -242 -1 -311 29 -166 123 -363 216
-451 127 -119 331 -43 335 124 1 59 -12 97 -55 153 -83 108 -117 214 -111 351
5 112 43 221 128 363 91 153 124 219 158 316 74 215 76 434 4 640 -25 73 -101
206 -151 263 -69 78 -147 104 -230 76z"/>
<path d="M2501 3334 c-78 -23 -131 -94 -133 -179 -1 -57 8 -81 57 -150 78
-111 105 -185 110 -302 5 -145 -32 -251 -159 -462 -86 -141 -121 -223 -161
-375 -31 -120 -29 -340 5 -456 39 -137 130 -301 202 -366 122 -111 311 -44
331 116 6 53 -16 113 -66 180 -122 162 -136 372 -38 580 17 36 37 74 44 84
111 175 194 354 213 461 3 17 9 47 14 69 16 70 5 293 -18 381 -28 106 -112
270 -173 338 -74 83 -141 107 -228 81z"/>
<path d="M3696 3338 c-104 -23 -166 -128 -142 -238 5 -19 25 -57 45 -85 84
-115 111 -186 116 -305 6 -146 -27 -248 -145 -445 -138 -232 -190 -388 -196
-590 -3 -128 9 -215 46 -320 51 -148 149 -296 224 -340 95 -55 230 -15 270 80
38 89 29 134 -47 249 -82 123 -102 189 -100 321 2 123 38 222 153 415 111 186
164 325 185 480 7 47 6 194 0 250 -11 89 -56 226 -103 310 -101 181 -190 244
-306 218z"/>
<path d="M315 571 c-43 -19 -90 -68 -107 -110 -6 -14 -10 -89 -10 -167 0 -113
3 -148 17 -177 22 -48 75 -93 122 -106 26 -8 732 -11 2231 -11 2386 0 2230 -4
2290 53 55 51 65 91 65 243 -1 113 -4 148 -18 178 -22 46 -86 102 -127 110
-17 3 -1019 6 -2227 6 -2109 0 -2198 -1 -2236 -19z"/>
</g>
</svg>
